<svg xmlns="http://www.w3.org/2000/svg" width="180" height="180"><defs><clipPath id="a"><path d="M28.125 0h123.75C167.406 0 180 12.594 180 28.125v123.75C180 167.406 167.406 180 151.875 180H28.125C12.594 180 0 167.406 0 151.875V28.125C0 12.594 12.594 0 28.125 0Zm0 0"/></clipPath><clipPath id="b"><path d="M39 44h102v91H39Zm0 0"/></clipPath><clipPath id="c"><path d="M28.125 0h123.75C167.406 0 180 12.594 180 28.125v123.75C180 167.406 167.406 180 151.875 180H28.125C12.594 180 0 167.406 0 151.875V28.125C0 12.594 12.594 0 28.125 0Zm0 0"/></clipPath></defs><g clip-path="url(#a)"><path d="M80 0h352c44.178 0 80 35.822 80 80v352c0 44.178-35.822 80-80 80H80c-44.178 0-80-35.822-80-80V80C0 35.822 35.822 0 80 0Zm0 0" style="fill-rule:nonzero;fill:#e4d8cd;fill-opacity:1;stroke-width:1;stroke-linecap:butt;stroke-linejoin:miter;stroke:#1b1b1b;stroke-opacity:1;stroke-miterlimit:4" transform="scale(.35156)"/></g><g clip-path="url(#b)"><g clip-path="url(#c)"><path d="M39.543 135V44.633H72.07l18.606 62.015h.125l17.34-62.015h32.273V135h-21.64V75.137h-.254L100.926 135h-21.77L61.437 75.137h-.124V135Zm0 0" style="stroke:none;fill-rule:nonzero;fill:#1b1b1b;fill-opacity:1"/></g></g><path d="M80 20h352c33.133 0 60 26.867 60 60v352c0 33.133-26.867 60-60 60H80c-33.133 0-60-26.867-60-60V80c0-33.133 26.867-60 60-60Zm0 0" style="fill:none;stroke-width:40;stroke-linecap:butt;stroke-linejoin:miter;stroke:#1b1b1b;stroke-opacity:1;stroke-miterlimit:4" transform="scale(.35156)"/></svg>