<svg width="64" height="64" viewBox="0 0 64 64" fill="none" xmlns="http://www.w3.org/2000/svg">
<path d="M17 32.0005C16.9995 31.6065 17.0768 31.2162 17.2276 30.8521C17.3784 30.4881 17.5997 30.1574 17.8787 29.8792L37.8787 9.87915C38.4414 9.31719 39.2043 9.00167 39.9996 9.00195C40.7949 9.00223 41.5575 9.31828 42.1198 9.88064C42.6822 10.443 42.9983 11.2056 42.9985 12.0009C42.9988 12.7962 42.6833 13.5591 42.1213 14.1218L24.2427 32.0005L42.1213 49.8792C42.6833 50.4419 42.9988 51.2048 42.9985 52.0001C42.9983 52.7954 42.6822 53.558 42.1198 54.1203C41.5575 54.6827 40.7949 54.9988 39.9996 54.999C39.2043 54.9993 38.4414 54.6838 37.8787 54.1218L17.8787 34.1218C17.5997 33.8436 17.3784 33.5129 17.2276 33.1489C17.0768 32.7848 16.9995 32.3945 17 32.0005Z" fill="#1B1B1B"/>
</svg>
