<svg viewBox="0 0 567 567" fill="none" xmlns="http://www.w3.org/2000/svg">
<path d="M200.339 66.6663H140.339C103.002 66.6663 84.32 66.6663 70.0594 73.9327C57.515 80.324 47.3237 90.5153 40.9323 103.06C33.666 117.32 33.666 136.003 33.666 173.34V426.673C33.666 464.01 33.666 482.67 40.9323 496.93C47.3237 509.473 57.515 519.683 70.0594 526.073C84.306 533.333 102.966 533.333 140.23 533.333H393.769C431.033 533.333 449.666 533.333 463.913 526.073C476.456 519.683 486.683 509.463 493.073 496.92C500.333 482.673 500.333 464.033 500.333 426.77V366.666M533.666 200V33.333M533.666 33.333H366.999M533.666 33.333L300.333 266.666" stroke="#1B1B1B" stroke-width="66.6667" stroke-linecap="round" stroke-linejoin="round"/>
</svg>
