<svg width="197" height="106" viewBox="0 0 197 106" fill="none" xmlns="http://www.w3.org/2000/svg">
<path d="M163.739 6.00231C127.478 -7.50288 99.8764 6.00231 99.8764 6.00231C116.113 9.78376 122.607 25.4498 124.772 36.7941H194.588C187.011 14.6456 163.739 6.00231 163.739 6.00231Z" fill="#DBE2E9"/>
<path d="M128.56 56.2247H99.8764V62.7072H126.396C124.772 73.5114 119.36 95.1197 99.8764 99.4413C99.8764 99.4413 128.019 112.947 163.739 99.4413C163.739 99.4413 195.129 87.5568 196.753 56.2247C196.753 56.2247 128.56 56.2247 128.56 56.2247Z" fill="#FFCD00"/>
<path d="M96.8764 6.00231C96.8764 6.00231 68.7335 -7.50288 33.0137 6.00231C33.0137 6.00231 1.62363 17.8869 0 49.2189H69.8159C69.8159 49.7591 70.8983 12.4848 96.8764 6.00231Z" fill="#009BD5"/>
<path d="M96.8764 99.9814C96.8764 99.9814 68.7335 113.487 33.0137 99.9814C33.0137 99.9814 1.62363 88.0968 0 56.7648H69.8159C69.8159 56.2245 70.8983 93.4989 96.8764 99.9814Z" fill="#00263E"/>
</svg>
