<svg width="197" height="106" viewBox="0 0 197 106" fill="none" xmlns="http://www.w3.org/2000/svg">
<path d="M163.565 6.47086L163.565 6.471L163.565 6.47102L163.565 6.47117L163.568 6.47211L163.579 6.47636L163.627 6.49443C163.669 6.51075 163.733 6.53563 163.817 6.56921C163.986 6.63639 164.235 6.73839 164.557 6.87639C165.199 7.15242 166.129 7.57236 167.269 8.14562C169.55 9.29241 172.672 11.0512 176.028 13.4966C182.608 18.2913 190.062 25.7045 193.882 36.2941H125.184C122.999 25.2688 116.72 10.2325 101.399 5.87933C102.213 5.54318 103.396 5.08516 104.914 4.57731C108.045 3.53018 112.599 2.27169 118.283 1.4325C129.649 -0.245731 145.527 -0.247075 163.565 6.47086Z" fill="#DBE2E9" stroke="#00263E"/>
<path d="M128.561 56.2246H99.8765V62.7071H126.396C124.772 73.5113 119.36 95.1196 99.8765 99.4412C99.8765 99.4412 128.019 112.946 163.739 99.4412C163.739 99.4412 195.129 87.5567 196.753 56.2246C196.753 56.2246 128.561 56.2246 128.561 56.2246Z" fill="#FFCD00"/>
<path d="M96.8764 6.00231C96.8764 6.00231 68.7335 -7.50288 33.0137 6.00231C33.0137 6.00231 1.62363 17.8869 0 49.2189H69.8159C69.8159 49.7591 70.8983 12.4848 96.8764 6.00231Z" fill="#009BD5"/>
<path d="M96.8764 99.9822C96.8764 99.9822 68.7335 113.487 33.0137 99.9822C33.0137 99.9822 1.62363 88.0976 0 56.7656H69.8159C69.8159 56.2254 70.8983 93.4997 96.8764 99.9822Z" fill="#00263E"/>
</svg>
