<svg width="232" height="270" viewBox="0 0 232 270" fill="none" xmlns="http://www.w3.org/2000/svg">
<g clip-path="url(#clip0_359_19067)">
<path d="M47.3632 -0.0546875C44.6439 30.3108 53.255 45.2669 53.7082 45.7201C53.7082 45.7201 46.91 41.6412 41.0182 33.4833C44.1907 53.878 59.6 62.4891 59.6 62.4891C66.8515 85.1499 77.2755 95.5739 77.2755 95.5739C11.5592 118.235 4.3077 197.547 4.3077 197.547C4.3077 197.547 25.1556 168.995 60.5065 163.556C5.66735 182.138 0.22876 241.056 0.22876 241.056C0.22876 241.056 26.0621 208.425 82.7141 213.863C82.2609 213.41 95.4041 194.375 111.267 188.483C111.267 188.483 96.7638 202.08 89.0591 215.223C89.0591 215.223 102.202 217.489 107.641 219.302C113.08 220.662 126.676 225.194 125.77 232.898C124.41 245.588 99.483 249.667 99.483 249.214C116.252 260.998 133.927 255.559 134.381 255.559C131.661 261.451 113.986 265.53 113.986 265.53C113.986 265.53 165.653 285.018 169.732 240.15C183.328 230.179 181.968 215.223 181.968 215.223C181.968 215.223 175.623 224.287 162.933 222.474C158.854 222.021 140.273 208.878 146.164 197.547C147.977 193.469 162.48 184.857 181.968 187.577C190.579 188.936 194.658 202.533 194.658 202.986C193.299 211.144 184.688 224.74 184.688 224.74C184.688 224.74 195.112 226.1 207.348 215.676C211.881 217.489 212.787 218.849 216.413 216.583C222.305 212.504 224.117 202.986 224.571 202.08C227.743 200.267 232.729 195.281 231.822 181.685C230.916 170.808 225.024 158.118 216.413 148.6C210.068 119.594 200.55 105.545 151.15 83.7903C90.4187 57.957 71.8369 51.6119 47.3632 -0.0546875Z" fill="#AC9156"/>
<path d="M58.6937 30.7637C58.6937 30.7637 59.6001 69.287 84.0738 99.1993C83.6206 99.1993 83.1674 99.6525 82.2609 99.6525C82.2609 99.6525 42.3779 105.544 20.6236 174.886C20.6236 174.886 39.6586 150.413 108.094 157.211C83.1674 154.945 31.5007 171.261 15.6382 221.568C15.6382 221.568 32.8604 203.439 77.2756 207.065C82.7142 198.907 99.9364 182.591 129.395 177.152C129.395 177.152 112.626 186.67 101.296 210.69C100.843 210.69 106.735 211.597 113.986 214.316C113.986 214.316 150.697 227.006 118.971 251.027C118.971 251.027 138.46 253.293 142.992 242.869C148.884 251.48 137.1 260.091 134.381 261.904C171.544 264.623 165.199 236.977 165.199 236.977C172.904 233.804 176.983 222.021 176.983 222.021C168.372 228.819 160.667 226.1 157.948 225.193C155.229 223.38 131.208 203.439 138.007 191.202C144.352 182.591 164.746 176.246 178.343 178.512C191.486 180.325 198.284 199.36 198.284 199.813C200.097 204.799 191.939 218.848 191.033 220.208C191.033 220.208 200.55 219.755 206.442 210.237C213.24 216.129 217.773 211.144 220.492 199.36C224.118 181.685 215.96 180.325 215.96 180.325C215.96 180.325 215.506 184.857 213.694 186.217C211.881 187.576 215.053 178.512 211.881 172.62C211.881 172.62 224.571 173.98 225.024 189.389C225.024 190.749 224.571 193.468 223.664 195.734C227.743 193.468 227.29 184.404 227.29 184.404C225.477 162.196 211.428 151.319 211.428 151.319C205.989 125.939 200.55 112.343 148.884 88.7753C110.814 71.5531 71.3837 58.8631 58.6937 30.7637Z" fill="#501214"/>
<path d="M80.4481 70.6465C80.4481 70.6465 79.0885 80.164 91.7785 97.8394C106.735 95.5734 126.223 96.0266 146.164 105.091C124.41 86.0558 104.015 86.0558 80.4481 70.6465ZM177.436 132.737C177.436 141.348 179.702 149.053 185.141 152.679C188.767 155.398 194.659 154.491 196.471 149.959C197.831 147.24 195.565 143.614 195.565 143.614C193.299 149.506 187.407 151.772 187.407 151.772C187.407 151.772 191.033 144.974 191.486 139.082C185.141 134.097 177.436 132.737 177.436 132.737Z" fill="#AC9156"/>
</g>
<defs>
<clipPath id="clip0_359_19067">
<rect width="232" height="270" fill="white"/>
</clipPath>
</defs>
</svg>
