<svg width="78" height="74" viewBox="0 0 78 74" fill="none" xmlns="http://www.w3.org/2000/svg">
<path fill-rule="evenodd" clip-rule="evenodd" d="M38.4949 3.55469L29.9549 28.9277L3.66895 29.1087L24.5849 44.8427L16.3989 70.5767L38.6829 55.3927L60.4159 70.3967L52.5049 45.0217L75.3319 28.4707L47.3199 29.7467L38.4949 3.55469Z" fill="#AB9055"/>
<path fill-rule="evenodd" clip-rule="evenodd" d="M77.4493 28.142C77.4493 28.142 49.0773 28.142 47.8963 28.142C47.5293 27.014 38.7703 0 38.7703 0C38.7703 0 29.6533 26.943 29.2763 28.052C28.1133 28.052 0.154297 28.052 0.154297 28.052C0.154297 28.052 22.5253 44.903 23.4483 45.595C23.1023 46.689 14.7983 73.311 14.7983 73.311C14.7983 73.311 37.7043 57.2 38.6353 56.546C39.5673 57.194 62.8643 73.267 62.8643 73.267C62.8643 73.267 53.8213 46.402 53.4363 45.258C54.4213 44.558 77.4493 28.142 77.4493 28.142ZM38.7133 54.226V40.544L18.3623 68.123L25.7513 44.716L38.7133 40.544L6.36229 30.027H30.3473L38.7133 40.544H38.7173L38.7133 5.85L46.5193 29.662L38.7183 40.544H38.7353L71.4233 29.914L51.1553 44.385L38.7143 40.545L59.3273 68.258L38.7133 54.226Z" fill="#571D1F"/>
</svg>
